<svg xmlns="http://www.w3.org/2000/svg" version="1.1" xmlns:xlink="http://www.w3.org/1999/xlink" xmlns:svgjs="http://svgjs.dev/svgjs" width="24" height="24"><svg width="24" height="24" viewBox="0 0 24 24" fill="none" xmlns="http://www.w3.org/2000/svg">
<rect width="24" height="24" fill="#143C3C"></rect>
<path d="M21.4935 14.865L21.9825 14.9806C21.9874 14.9552 21.9935 14.9298 21.9956 14.9036C21.9976 14.8835 21.9927 14.8585 21.9919 14.8417C21.9907 14.8183 22.0026 14.799 21.9993 14.7794C21.9956 14.756 21.9845 14.7326 21.9767 14.7142C21.9673 14.6929 21.9652 14.6838 21.9525 14.6683C21.9382 14.6506 21.9062 14.6138 21.8882 14.6039C21.8697 14.5941 21.8341 14.6133 21.8119 14.6084C21.7915 14.6043 21.7714 14.6019 21.7476 14.6019C21.725 14.6019 21.7054 14.606 21.6832 14.6133C21.6627 14.6199 21.6451 14.6199 21.6254 14.6306C21.6074 14.64 21.6008 14.633 21.584 14.6453C21.5681 14.6568 21.564 14.6634 21.5496 14.6761C21.5357 14.6884 21.5238 14.6912 21.5115 14.7039C21.5008 14.7166 21.5004 14.7474 21.4898 14.7601C21.4783 14.7728 21.484 14.799 21.4754 14.8117C21.4672 14.8257 21.459 14.8412 21.4541 14.8564C21.4639 14.8589 21.493 14.8654 21.493 14.8654L21.4935 14.865Z" fill="#24635B"></path>
<path d="M16.967 16.2281C16.9891 16.2252 17.0129 16.2264 17.0297 16.2232C17.0523 16.2191 17.067 16.2322 17.083 16.2277C17.1047 16.2215 17.1154 16.1936 17.1322 16.1871C17.1498 16.1801 17.1683 16.1703 17.1892 16.1641C17.2015 16.1604 17.2285 16.2104 17.2548 16.2158C17.2736 16.2195 17.3011 16.185 17.322 16.1904C17.3429 16.1953 17.3568 16.1887 17.3757 16.1928C17.4019 16.1986 17.4265 16.2047 17.4388 16.2027C17.4638 16.2043 17.4835 16.1842 17.5003 16.1818C17.5241 16.1785 17.5421 16.2215 17.5606 16.2158C17.579 16.21 17.5995 16.2342 17.6237 16.2326C17.6409 16.2314 17.6622 16.1867 17.6872 16.19C17.702 16.1936 17.7143 16.2158 17.729 16.2186C17.7438 16.2215 17.7614 16.1973 17.7762 16.199C17.8028 16.2023 17.8278 16.2031 17.8544 16.2027C17.8737 16.2047 17.8938 16.2104 17.9135 16.2121C17.9327 16.2137 17.9524 16.2047 17.9717 16.2059C17.9909 16.2072 18.0094 16.224 18.0287 16.2248C18.0479 16.2256 18.0668 16.2002 18.0865 16.2006C18.1057 16.2006 18.125 16.1912 18.1447 16.1904C18.1639 16.1895 18.182 16.2145 18.2012 16.2129C18.2197 16.2113 18.2398 16.226 18.2586 16.2248C18.2775 16.2236 18.2959 16.2084 18.3148 16.2076C18.3336 16.2068 18.3529 16.2334 18.3717 16.233C18.3906 16.233 18.409 16.2129 18.4279 16.2129C18.4468 16.2129 18.4656 16.2268 18.4845 16.2273C18.5033 16.2273 18.5226 16.2006 18.5414 16.2014C18.5603 16.2018 18.5796 16.1973 18.5984 16.1982C18.6173 16.199 18.6361 16.1928 18.655 16.1936C18.6738 16.1945 18.6919 16.2043 18.7107 16.2055C18.7296 16.2063 18.7472 16.226 18.7657 16.2273C18.7845 16.2285 18.8046 16.1928 18.823 16.1941C18.8427 16.1953 18.8599 16.1842 18.8792 16.1854C18.8989 16.1867 18.9214 16.1412 18.9411 16.142C18.9608 16.1432 18.9796 16.1502 18.9989 16.151C19.0186 16.1518 19.0378 16.149 19.0571 16.1498C19.0764 16.1506 19.0965 16.1826 19.1157 16.1834C19.135 16.1842 19.1551 16.2186 19.1747 16.2191C19.194 16.2199 19.212 16.2289 19.2317 16.2293C19.251 16.2297 19.2707 16.2359 19.2903 16.2363C19.3096 16.2367 19.3297 16.2043 19.3494 16.2047C19.369 16.2047 19.3904 16.233 19.41 16.2318C19.4293 16.2305 19.4457 16.2129 19.465 16.2104C19.4842 16.208 19.501 16.1887 19.5203 16.185C19.5396 16.1813 19.5662 16.2285 19.5855 16.2244C19.6047 16.2203 19.6178 16.2305 19.6371 16.2264C19.6564 16.2223 19.6715 16.192 19.6908 16.1879C19.7101 16.1838 19.7351 16.2195 19.7543 16.2162C19.7736 16.2129 19.79 16.1818 19.8093 16.1793C19.8285 16.1768 19.8511 16.2211 19.8703 16.2199C19.89 16.2186 19.9081 16.1867 19.9277 16.1875C19.9466 16.1883 19.9646 16.2051 19.9835 16.2072C20.0023 16.2092 20.022 16.2027 20.0409 16.2055C20.0597 16.2088 20.0749 16.2342 20.0937 16.2379C20.1126 16.2416 20.1401 16.1928 20.1585 16.1969C20.1774 16.201 20.1954 16.1481 20.2143 16.1522C20.2331 16.1559 20.2511 16.16 20.27 16.1637C20.2889 16.1674 20.2995 16.1453 20.3184 16.1481C20.3372 16.151 20.3594 16.1276 20.3786 16.1293C20.3963 16.1317 20.42 16.1568 20.4413 16.1563C20.4631 16.1555 20.4852 16.1375 20.5065 16.1346C20.5278 16.1313 20.545 16.1104 20.5647 16.1047C20.5848 16.0998 20.6102 16.1313 20.6307 16.1256C20.6512 16.1203 20.6742 16.1449 20.6947 16.1391C20.7152 16.1342 20.7373 16.1326 20.7574 16.1256C20.7771 16.1178 20.8016 16.1219 20.8217 16.1141C20.8418 16.1059 20.8512 16.0744 20.8701 16.0645C20.889 16.0555 20.9062 16.0407 20.9254 16.0317C20.9439 16.0231 20.9808 16.051 21.0009 16.042C21.0197 16.0326 21.03 16.0051 21.0492 15.9952C21.0689 15.985 21.0968 15.9891 21.1177 15.9789C21.1386 15.9694 21.1431 15.9301 21.1624 15.919C21.1812 15.9079 21.2312 15.9452 21.2517 15.9338C21.2722 15.9227 21.3034 15.9288 21.3226 15.9149C21.3419 15.9018 21.3669 15.8989 21.3866 15.8858C21.4058 15.8719 21.4206 15.8493 21.4382 15.8337C21.4567 15.8186 21.4575 15.7825 21.4751 15.7678C21.4927 15.7526 21.5202 15.7489 21.5374 15.7329C21.5538 15.7161 21.5591 15.6891 21.5747 15.6722C21.5911 15.6546 21.6243 15.6534 21.6395 15.6337C21.6534 15.614 21.6731 15.5976 21.6854 15.5763C21.6977 15.5554 21.7334 15.5468 21.7457 15.5255C21.7579 15.5042 21.7637 15.4804 21.7756 15.4587C21.7871 15.4366 21.7965 15.4161 21.8096 15.3952C21.8219 15.3771 21.8211 15.3521 21.8321 15.3328C21.8428 15.314 21.8461 15.2902 21.8576 15.2718C21.8686 15.2529 21.8547 15.2185 21.8637 15.1992C21.8653 15.1964 21.8674 15.1939 21.869 15.191C21.8756 15.1841 21.9231 15.1226 21.9301 15.1123C21.9367 15.1029 21.9453 15.0967 21.9518 15.0869C21.9576 15.0767 21.9559 15.064 21.9609 15.0537C21.9658 15.0435 21.983 14.991 21.9854 14.9799L21.4542 14.8545C21.4526 14.8623 21.4522 14.8783 21.4509 14.8861C21.4497 14.8938 21.4591 14.9045 21.4583 14.9123C21.4583 14.9205 21.4599 14.9533 21.4583 14.9611C21.4571 14.9693 21.4231 14.9668 21.4222 14.9742C21.421 14.982 21.4468 14.9988 21.4456 15.007C21.4452 15.0119 21.4485 15.018 21.4513 15.0238C21.4522 15.0308 21.453 15.0377 21.4513 15.0443C21.4468 15.0594 21.4661 15.0857 21.4612 15.1013C21.4559 15.1168 21.4296 15.1238 21.4247 15.139C21.4206 15.1545 21.4206 15.1726 21.4136 15.1873C21.4071 15.2021 21.4153 15.2246 21.4083 15.2398C21.4009 15.2546 21.4063 15.2771 21.3968 15.2914C21.3878 15.307 21.3271 15.2873 21.3181 15.3009C21.3083 15.3148 21.2743 15.3087 21.2636 15.3214C21.2525 15.3333 21.2698 15.371 21.2579 15.3829C21.246 15.3952 21.2128 15.3849 21.2009 15.3964C21.1886 15.4074 21.1824 15.4251 21.1693 15.4357C21.1562 15.446 21.1398 15.4521 21.1267 15.462C21.1144 15.473 21.0992 15.4808 21.0861 15.4903C21.0726 15.4993 21.0771 15.5345 21.0636 15.5448C21.0566 15.5497 21.0496 15.5542 21.0427 15.5583C21.0349 15.562 21.0275 15.5657 21.0205 15.5702C21.0066 15.5796 20.9935 15.5894 20.9804 15.6001C20.9668 15.6104 20.9463 15.6099 20.9324 15.6194C20.9189 15.6296 20.8926 15.6181 20.8795 15.6272C20.866 15.6362 20.8787 15.696 20.8635 15.705C20.848 15.7124 20.8209 15.6956 20.8057 15.7026C20.7902 15.7095 20.7672 15.6973 20.752 15.7042C20.7369 15.7116 20.7279 15.7374 20.7115 15.7432C20.6947 15.7485 20.6557 15.6985 20.6406 15.7038C20.6254 15.71 20.6147 15.7354 20.5979 15.7395C20.5815 15.7436 20.5614 15.7321 20.5455 15.737C20.5295 15.7415 20.5151 15.7575 20.4979 15.76C20.4811 15.7632 20.4631 15.7555 20.4463 15.7583C20.4295 15.7612 20.4122 15.7509 20.3954 15.7534C20.3758 15.7546 20.3573 15.7714 20.3376 15.7719C20.3176 15.7719 20.2987 15.7784 20.2786 15.7772C20.2589 15.776 20.2376 15.7915 20.2179 15.7878L20.1618 15.7784C20.1429 15.7755 20.1228 15.787 20.104 15.785C20.0851 15.7825 20.0704 15.7329 20.0515 15.7309C20.0327 15.7288 20.0105 15.7678 19.9917 15.7661C19.9728 15.7645 19.9544 15.755 19.9355 15.7534C19.9167 15.7518 19.8978 15.7473 19.879 15.746C19.8601 15.7448 19.8425 15.7112 19.8236 15.71C19.8048 15.7087 19.7835 15.7682 19.7646 15.7673C19.7457 15.7665 19.7281 15.7276 19.7093 15.7268C19.6904 15.7259 19.6715 15.7218 19.6527 15.721C19.633 15.7202 19.6138 15.6977 19.5941 15.6973C19.5744 15.6964 19.5539 15.7563 19.5342 15.7563C19.5146 15.7563 19.4949 15.7362 19.4752 15.737C19.4555 15.7382 19.4354 15.7329 19.4162 15.7354C19.3965 15.7378 19.3727 15.7161 19.3535 15.7206C19.335 15.7247 19.3215 15.753 19.303 15.7567C19.2846 15.7604 19.2633 15.7362 19.2452 15.7391C19.2268 15.7419 19.2145 15.8022 19.1965 15.8042C19.178 15.8063 19.1555 15.7534 19.137 15.7546C19.1186 15.7563 19.0854 15.7546 19.0669 15.755C19.0485 15.7559 19.0301 15.7468 19.0116 15.7473C18.9932 15.7473 18.9751 15.7624 18.9563 15.762C18.9358 15.762 18.9161 15.7321 18.896 15.7313C18.8755 15.7305 18.8558 15.7264 18.8358 15.7251C18.8153 15.7239 18.7923 15.8419 18.7718 15.8399C18.7517 15.8378 18.7329 15.8161 18.7128 15.8128C18.6927 15.81 18.6796 15.8485 18.6595 15.8448C18.6394 15.8411 18.6185 15.8403 18.598 15.8358C18.5796 15.8313 18.5681 15.7792 18.5492 15.776C18.5308 15.7731 18.5099 15.7768 18.491 15.7751C18.4722 15.7735 18.4517 15.7997 18.4324 15.7989C18.4136 15.7981 18.3947 15.8264 18.3758 15.8264C18.357 15.8264 18.3381 15.7952 18.3189 15.796C18.3 15.7964 18.2799 15.7694 18.2607 15.7702C18.2418 15.7714 18.2254 15.8186 18.2061 15.8198C18.1873 15.8215 18.1668 15.801 18.1479 15.8026C18.1291 15.8042 18.1078 15.7792 18.0893 15.7813C18.0705 15.7833 18.0541 15.8157 18.0352 15.8178C18.0164 15.8198 17.9971 15.8161 17.9782 15.8182C17.9594 15.8202 17.9561 15.8374 17.9377 15.8395C17.9188 15.8415 17.9012 15.8559 17.8827 15.8579C17.8639 15.86 17.8692 15.8399 17.8508 15.8415C17.8315 15.8432 17.8118 15.8403 17.7934 15.8415C17.7725 15.8428 17.7536 15.7719 17.736 15.7727C17.7155 15.7735 17.6958 15.7497 17.6782 15.7501C17.6581 15.7501 17.6405 15.7313 17.622 15.73C17.6036 15.7288 17.5823 15.7645 17.5622 15.7616C17.5446 15.7591 17.5323 15.7071 17.5114 15.703C17.4941 15.6997 17.4482 15.7899 17.4277 15.7854C17.4118 15.7796 17.3945 15.7497 17.3736 15.7481C17.3548 15.7468 17.3335 15.7735 17.3142 15.7723C17.2929 15.771 17.2675 15.785 17.2515 15.7796C17.2318 15.7731 17.2162 15.7555 17.1961 15.7518C17.1761 15.7481 17.158 15.7259 17.1375 15.7239C17.1174 15.7218 17.0965 15.7272 17.076 15.7251C17.056 15.7231 17.0215 15.7054 17.001 15.7018C16.9826 15.6985 16.9244 15.6907 16.9043 15.6907V16.2363C16.9256 16.2346 16.9494 16.2309 16.967 16.2289V16.2281Z" fill="#24635B"></path>
<path d="M12.1934 14.6782C12.1922 14.706 12.1873 14.7355 12.1877 14.7564C12.1885 14.7847 12.175 14.8024 12.1782 14.8228C12.1828 14.8503 12.2098 14.8642 12.2168 14.8847C12.2237 14.9061 12.2332 14.9282 12.241 14.9528C12.2459 14.9667 12.1975 15.0028 12.1955 15.0364C12.1951 15.0602 12.2336 15.0889 12.2324 15.1143C12.2324 15.1397 12.2426 15.1553 12.243 15.1786C12.2438 15.211 12.2471 15.2414 12.2529 15.2557C12.2586 15.286 12.2869 15.3016 12.2955 15.3205C12.3074 15.3463 12.2758 15.382 12.2902 15.4008C12.3041 15.4193 12.2914 15.4525 12.307 15.4791C12.318 15.498 12.368 15.5012 12.3807 15.5287C12.3865 15.5459 12.3746 15.5697 12.3816 15.5873C12.3881 15.6049 12.4213 15.609 12.4295 15.6254C12.4443 15.6545 12.4623 15.6791 12.4824 15.705C12.4947 15.7255 12.5066 15.7476 12.5209 15.7669C12.5349 15.7861 12.5578 15.798 12.5738 15.8152C12.5898 15.8328 12.5931 15.8615 12.6111 15.8779C12.6287 15.8947 12.6628 15.8915 12.6804 15.9066C12.6992 15.9214 12.7234 15.9284 12.7427 15.9423C12.7615 15.9558 12.766 15.9882 12.7865 16.0005C12.8062 16.0124 12.8197 16.0374 12.8411 16.048C12.862 16.0587 12.889 16.0571 12.9103 16.0665C12.9312 16.0759 12.9415 16.1108 12.9636 16.1206C12.9858 16.1292 13.0149 16.1198 13.0366 16.1284C13.0579 16.1374 13.0759 16.1567 13.0985 16.1649C13.121 16.1731 13.1514 16.1538 13.1735 16.1595C13.1956 16.1653 13.2198 16.1677 13.2419 16.1722C13.2645 16.1772 13.2883 16.1751 13.3104 16.1796C13.3325 16.1841 13.3538 16.1956 13.3764 16.1993C13.3989 16.203 13.4194 16.2243 13.4424 16.2255C13.4653 16.2276 13.492 16.1927 13.5121 16.1944C13.5317 16.1956 13.549 16.1845 13.5682 16.1858C13.5879 16.187 13.6104 16.1415 13.6301 16.1423C13.6498 16.1436 13.6687 16.1505 13.6879 16.1513C13.7076 16.1522 13.7269 16.1493 13.7461 16.1501C13.7654 16.1509 13.7855 16.1829 13.8047 16.1837C13.824 16.1845 13.8441 16.219 13.8638 16.2194C13.883 16.2202 13.9011 16.2292 13.9207 16.2296C13.94 16.23 13.9597 16.2362 13.9794 16.2366C13.9986 16.237 14.0187 16.2046 14.0384 16.205C14.0581 16.205 14.0794 16.2333 14.0991 16.2321C14.1183 16.2309 14.1347 16.2132 14.154 16.2108C14.1732 16.2083 14.19 16.1891 14.2093 16.1854C14.2286 16.1817 14.2552 16.2288 14.2745 16.2247C14.2938 16.2206 14.3069 16.2309 14.3261 16.2268C14.3454 16.2227 14.3606 16.1923 14.3798 16.1882C14.3991 16.1841 14.4241 16.2198 14.4434 16.2165C14.4626 16.2132 14.479 16.1821 14.4983 16.1796C14.5176 16.1772 14.5401 16.2214 14.5594 16.2202C14.579 16.219 14.5971 16.187 14.6168 16.1878C14.6356 16.1886 14.6536 16.2054 14.6725 16.2075C14.6914 16.2095 14.711 16.203 14.7299 16.2059C14.7487 16.2091 14.7639 16.2346 14.7828 16.2382C14.8016 16.2419 14.8291 16.1932 14.8475 16.1973C14.8664 16.2013 14.8844 16.1485 14.9033 16.1526C14.9221 16.1563 14.9402 16.1604 14.959 16.164C14.9779 16.1677 14.9885 16.1456 15.0074 16.1485C15.0262 16.1513 15.0484 16.128 15.0676 16.1296C15.0865 16.1313 15.1058 16.1587 15.1246 16.1587C15.1435 16.1587 15.164 16.1419 15.1828 16.1403C15.2017 16.1386 15.2189 16.1169 15.2373 16.1149C15.2562 16.1128 15.2751 16.1477 15.2931 16.1452C15.3115 16.1427 15.3283 16.171 15.3464 16.1686C15.3648 16.1661 15.3841 16.1714 15.4025 16.169C15.421 16.1665 15.4407 16.1763 15.4591 16.1739C15.4776 16.1714 15.4935 16.1419 15.5124 16.1399C15.5308 16.1378 15.5497 16.1296 15.5681 16.128C15.5866 16.1263 15.6079 16.1653 15.6268 16.1636C15.6452 16.1624 15.6632 16.1423 15.6821 16.1419C15.7018 16.1411 15.7223 16.1571 15.7423 16.1567C15.762 16.1567 15.7825 16.1259 15.8022 16.1263C15.8223 16.1267 15.8424 16.1845 15.8624 16.1854C15.8825 16.1862 15.9018 16.2083 15.9215 16.2091C15.9416 16.21 15.9596 16.2227 15.9797 16.2239C15.9998 16.2251 16.0211 16.2141 16.0412 16.2153C16.0613 16.2165 16.0817 16.1903 16.1018 16.1911C16.1219 16.1919 16.1408 16.2071 16.1609 16.2079C16.1809 16.2087 16.2006 16.1944 16.2203 16.1944C16.2408 16.1944 16.2605 16.2186 16.281 16.2165C16.3015 16.2145 16.3224 16.221 16.3429 16.2182C16.3633 16.2153 16.3863 16.2391 16.4068 16.2362C16.4273 16.2333 16.4466 16.2276 16.4671 16.2255C16.4876 16.2239 16.5068 16.2214 16.5273 16.2218C16.5458 16.2218 16.5638 16.2112 16.5826 16.2128C16.6011 16.2145 16.6199 16.2067 16.6384 16.2091C16.6568 16.2116 16.679 16.1825 16.6974 16.1854C16.7003 16.1858 16.7027 16.187 16.7056 16.1874C16.7134 16.1911 16.7765 16.2149 16.786 16.2177C16.7954 16.2206 16.8024 16.2272 16.8118 16.2296C16.8212 16.2321 16.831 16.228 16.8409 16.2296C16.8503 16.2317 16.8962 16.2354 16.9057 16.2354V15.6894C16.8958 15.6894 16.8761 15.6935 16.8667 15.6939C16.8569 15.6943 16.847 15.7066 16.8376 15.7074C16.8278 15.7082 16.7901 15.7205 16.7802 15.7218C16.7704 15.7234 16.7597 15.6906 16.7503 15.6923C16.7405 15.6939 16.7323 15.7238 16.7224 15.7255C16.7167 15.7267 16.7114 15.7316 16.7056 15.7365C16.6982 15.7398 16.6905 15.7427 16.6831 15.7435C16.6642 15.7455 16.6454 15.7751 16.6265 15.7771C16.6077 15.7792 16.5872 15.7582 16.5683 15.7603C16.5494 15.7623 16.5314 15.7722 16.5126 15.7742C16.4937 15.7763 16.4765 15.7951 16.4576 15.7968C16.4388 15.7988 16.4207 15.8132 16.4019 15.8148C16.3822 15.8169 16.3597 15.7566 16.34 15.7574C16.3203 15.7582 16.3002 15.7263 16.2806 15.7263C16.2609 15.7263 16.2404 15.7644 16.2207 15.7636C16.201 15.7628 16.1822 15.7316 16.1625 15.7304C16.1428 15.7291 16.1223 15.739 16.1027 15.7378C16.083 15.7365 16.0633 15.73 16.0432 15.7287C16.0235 15.7275 16.0035 15.7267 15.9834 15.7255C15.9633 15.7246 15.9428 15.7558 15.9231 15.7554C15.903 15.7554 15.8838 15.7517 15.8641 15.7525C15.8444 15.7533 15.8251 15.755 15.8051 15.757C15.7854 15.7591 15.7641 15.7468 15.7444 15.75C15.7247 15.7533 15.703 15.732 15.6837 15.7345C15.6641 15.7369 15.6489 15.796 15.6296 15.7976C15.6099 15.7992 15.5886 15.7742 15.569 15.7755C15.5493 15.7767 15.5288 15.7574 15.5091 15.7582C15.4894 15.7595 15.471 15.7841 15.4509 15.7853C15.4312 15.7865 15.4005 15.7283 15.3808 15.7296C15.3611 15.7308 15.3427 15.7554 15.323 15.757C15.3033 15.7587 15.282 15.7443 15.2624 15.7468C15.2427 15.7488 15.2238 15.7615 15.2041 15.764C15.1845 15.7664 15.164 15.7578 15.1443 15.7599C15.1246 15.7619 15.1045 15.7509 15.0849 15.7521C15.0652 15.7533 15.0467 15.7701 15.0271 15.7705C15.007 15.7705 14.9881 15.7771 14.968 15.7759C14.9484 15.7746 14.9271 15.7902 14.9074 15.7865L14.8512 15.7771C14.8324 15.7742 14.8123 15.7857 14.7934 15.7837C14.7746 15.7812 14.7598 15.7316 14.741 15.7296C14.7221 15.7275 14.7 15.7664 14.6811 15.7648C14.6623 15.7632 14.6438 15.7537 14.625 15.7521C14.6061 15.7505 14.5872 15.7459 14.5684 15.7447C14.5495 15.7435 14.5319 15.7099 14.5131 15.7086C14.4942 15.7074 14.4729 15.7669 14.454 15.766C14.4352 15.7652 14.4175 15.7263 14.3987 15.7255C14.3798 15.7246 14.361 15.7205 14.3421 15.7197C14.3224 15.7189 14.3032 15.6963 14.2835 15.6959C14.2638 15.6951 14.2433 15.755 14.2237 15.755C14.204 15.755 14.1843 15.7349 14.1646 15.7357C14.145 15.7369 14.1249 15.7316 14.1056 15.7341C14.0859 15.7365 14.0622 15.7148 14.0429 15.7193C14.0244 15.7234 14.0109 15.7517 13.9925 15.7554C13.974 15.7591 13.9527 15.7349 13.9347 15.7378C13.9162 15.7406 13.9039 15.8009 13.8859 15.8029C13.8675 15.805 13.8449 15.7521 13.8265 15.7533C13.808 15.755 13.7748 15.7533 13.7564 15.7537C13.7379 15.7546 13.7195 15.7455 13.701 15.7459C13.6826 15.7459 13.6646 15.7611 13.6457 15.7607C13.6252 15.7607 13.6055 15.7308 13.5854 15.73C13.5649 15.7291 13.5453 15.725 13.5252 15.7238C13.5203 15.7238 13.5149 15.7308 13.5096 15.7414C13.5051 15.7521 13.5006 15.7664 13.4961 15.7808C13.4867 15.8095 13.476 15.8382 13.467 15.8369C13.4489 15.8345 13.4342 15.8119 13.417 15.8066C13.4002 15.8017 13.3842 15.8394 13.3666 15.8333C13.3497 15.8263 13.3313 15.8226 13.3149 15.8148C13.2997 15.8078 13.3018 15.7533 13.2879 15.7472C13.2739 15.7406 13.2563 15.7406 13.2419 15.7332C13.2284 15.7267 13.203 15.7468 13.1882 15.7402C13.1743 15.7337 13.1485 15.7537 13.1329 15.7472C13.1177 15.7406 13.1169 15.705 13.1026 15.6988C13.0878 15.6927 13.0866 15.6599 13.0727 15.6533C13.0591 15.6468 13.0222 15.6804 13.0079 15.6718C12.9935 15.6636 12.9907 15.6377 12.9767 15.6295C12.9628 15.6209 12.9644 15.5902 12.9509 15.5824C12.9378 15.5742 12.9066 15.589 12.8927 15.5799C12.8788 15.5709 12.8702 15.5562 12.857 15.5463C12.8443 15.5361 12.8296 15.5463 12.8169 15.5353C12.8046 15.5242 12.7833 15.5217 12.771 15.5103C12.7583 15.4984 12.7775 15.4893 12.7665 15.4775C12.7554 15.4648 12.746 15.45 12.7365 15.4365C12.7251 15.4213 12.7755 15.3692 12.7673 15.3582C12.7578 15.3438 12.7706 15.318 12.7636 15.3061C12.7554 15.2922 12.7669 15.2705 12.7611 15.2569C12.7554 15.2438 12.7164 15.2426 12.7128 15.2262C12.7095 15.2118 12.7538 15.184 12.7529 15.168C12.7521 15.1557 12.6541 15.1487 12.6541 15.1295C12.6562 15.1147 12.6808 15.0942 12.6796 15.0774C12.6779 15.0626 12.6476 15.0508 12.6464 15.0348C12.6455 15.0176 12.6283 14.9983 12.6316 14.9848C12.6369 14.9675 12.6537 14.954 12.6562 14.938C12.6578 14.9216 12.6816 14.9069 12.6832 14.8913C12.6849 14.8757 12.6804 14.8593 12.6832 14.8438C12.6857 14.8282 12.7062 14.804 12.7119 14.7896C12.7156 14.7761 12.7324 14.7355 12.7353 14.7212L12.2037 14.5986C12.2 14.6257 12.1971 14.6556 12.1951 14.6773L12.1934 14.6782Z" fill="#24635B"></path>
<path d="M12.2016 14.5988C12.2106 14.5631 12.2188 14.5385 12.2315 14.5062C12.2467 14.4725 12.2803 14.4635 12.2971 14.4361C12.3164 14.4082 12.3077 14.3246 12.3319 14.3037C12.3561 14.2811 12.3918 14.3147 12.4147 14.302C12.4385 14.2885 12.475 14.2319 12.4967 14.2319C12.5197 14.2319 12.5254 14.2836 12.5459 14.2905C12.566 14.2979 12.5758 14.3176 12.593 14.3303C12.6103 14.343 12.6336 14.3442 12.6467 14.3619C12.6603 14.3795 12.6697 14.3984 12.6795 14.4184C12.689 14.4381 12.6963 14.459 12.7029 14.4812C12.7095 14.5029 12.7431 14.5176 12.7451 14.5398C12.7492 14.5619 12.7287 14.5885 12.7287 14.6123C12.7287 14.6258 12.741 14.65 12.7369 14.6713C12.7349 14.6828 12.7394 14.705 12.7324 14.7214L12.2012 14.5988H12.2016Z" fill="#24635B"></path>
<path d="M20.6971 13.4453L16.2886 13.458L19.9814 8.15589C20.4737 7.44389 19.9638 6.41504 19.1021 6.41504H8.2959C6.39682 6.42365 3.59186 7.38241 3.60948 10.2484C3.53037 12.2795 5.03389 13.0444 6.27385 13.4576C6.63415 13.5805 7.76876 13.9322 8.51601 14.3807C8.9997 14.6709 9.25466 15.1279 9.05217 15.5854C8.84107 16.0777 8.507 16.2096 7.91797 16.201C7.47855 16.1924 6.91576 16.0514 6.22097 15.7879C5.83402 15.6473 4.43626 14.8295 3.63613 16.1396C3.36354 16.6495 3.36354 17.696 4.17228 18.0915C4.99003 18.6014 6.73991 18.8654 7.68063 18.8564C9.07799 18.9105 10.1429 18.5707 10.8779 17.9316C11.7522 17.1959 12.2027 16.0977 12.233 14.9144H12.4626C12.4396 15.4829 12.8831 16.0252 13.5275 16.0252L20.7008 16.026C21.4136 16.026 21.9911 15.448 21.9911 14.7356C21.9911 14.0212 21.4107 13.4428 20.6967 13.4453H20.6971ZM13.0557 13.7486V13.6654H12.0539C11.8977 13.2256 11.6501 12.8673 11.3435 12.5714C10.3229 11.5294 8.53528 11.2921 7.47814 10.9613C7.47814 10.9613 6.30008 10.6096 6.58128 9.6422C6.77475 8.94741 7.64538 9.00029 7.77696 9.00029L16.2443 8.96504L13.0553 13.7486H13.0557Z" fill="#24635B" stroke="#24635B" stroke-width="0.284179" stroke-miterlimit="10"></path>
<path d="M14.3621 8.67234V9.17488L14.4482 9.17119C14.4704 9.16996 14.4966 9.16135 14.5155 9.15807C14.5413 9.15356 14.5638 9.16217 14.5855 9.15602C14.611 9.14905 14.6364 9.13799 14.6565 9.12897C14.6802 9.11831 14.6901 9.11585 14.7077 9.10233C14.7274 9.08716 14.7696 9.05355 14.7819 9.03469C14.7942 9.01584 14.7704 8.98099 14.7757 8.95845C14.7807 8.93795 14.7839 8.91787 14.7839 8.89369C14.7839 8.87114 14.7782 8.85187 14.768 8.82974C14.7585 8.80965 14.7581 8.79203 14.7421 8.77276C14.7274 8.75514 14.7376 8.74817 14.7188 8.73218C14.7007 8.71702 14.6905 8.71292 14.6696 8.69939C14.6495 8.68627 14.6433 8.67398 14.6212 8.66291C14.5995 8.65143 14.5495 8.65758 14.5269 8.64856C14.5036 8.63914 14.4634 8.64856 14.44 8.64201C14.415 8.63463 14.3876 8.63258 14.3613 8.63135C14.3613 8.6416 14.3613 8.67152 14.3613 8.67152L14.3621 8.67234Z" fill="#24635B"></path>
<path d="M7.43153 9.16834C7.46063 9.16547 7.49219 9.1667 7.51433 9.16342C7.54384 9.15932 7.56352 9.17244 7.58483 9.16793C7.61353 9.16178 7.62746 9.13391 7.6496 9.12735C7.67296 9.12038 7.69715 9.11054 7.72502 9.10439C7.74101 9.1007 7.77708 9.15112 7.81192 9.15604C7.83651 9.15973 7.87299 9.1253 7.90087 9.13063C7.92833 9.13555 7.94719 9.12899 7.97178 9.13309C8.00662 9.13882 8.039 9.14497 8.0554 9.14292C8.08819 9.14456 8.11402 9.12448 8.13697 9.12202C8.16853 9.11874 8.1919 9.16178 8.21649 9.15604C8.24068 9.1503 8.26773 9.17449 8.2997 9.17285C8.32225 9.17162 8.35053 9.12694 8.38332 9.13022C8.40259 9.13391 8.41898 9.15604 8.43866 9.15891C8.45833 9.16178 8.48129 9.1376 8.50096 9.13923C8.53622 9.14251 8.56901 9.14333 8.60426 9.14292C8.62967 9.14497 8.65632 9.15071 8.68214 9.15235C8.70755 9.15399 8.73338 9.14497 8.75879 9.1462C8.78421 9.14743 8.80839 9.16424 8.83381 9.16506C8.85963 9.16588 8.88422 9.14046 8.91005 9.14046C8.93546 9.14046 8.96128 9.13104 8.9867 9.13022C9.01211 9.1294 9.03589 9.1544 9.0613 9.15276C9.08589 9.15112 9.11213 9.16588 9.13713 9.16465C9.16173 9.16342 9.18632 9.14825 9.21091 9.14743C9.23551 9.14661 9.26133 9.17326 9.28634 9.17285C9.31093 9.17285 9.33594 9.15276 9.36053 9.15276C9.38512 9.15276 9.41013 9.1667 9.43513 9.16711C9.45973 9.16711 9.48555 9.14046 9.51014 9.14128C9.53474 9.14169 9.56056 9.13719 9.58557 9.13801C9.61016 9.13882 9.63516 9.13268 9.66017 9.1335C9.68476 9.13432 9.70895 9.14415 9.73395 9.14538C9.75854 9.1462 9.78232 9.16588 9.8065 9.16711C9.8311 9.16834 9.85815 9.13268 9.88233 9.13391C9.90857 9.13514 9.9307 9.12407 9.95653 9.1253C9.98235 9.12653 10.0123 9.08103 10.0381 9.08185C10.0639 9.08308 10.0889 9.09005 10.1147 9.09087C10.1406 9.09169 10.166 9.08882 10.1918 9.08964C10.2176 9.09046 10.2439 9.12243 10.2693 9.12325C10.2951 9.12407 10.3209 9.1585 10.3468 9.15891C10.3726 9.15973 10.3959 9.16875 10.4218 9.16916C10.4472 9.16957 10.473 9.17572 10.4988 9.17613C10.5242 9.17654 10.5509 9.14415 10.5767 9.14456C10.6025 9.14456 10.6308 9.17285 10.6566 9.17162C10.6825 9.17039 10.7038 9.15276 10.7292 9.1503C10.7546 9.14784 10.7767 9.12858 10.8026 9.12489C10.828 9.1212 10.8632 9.16834 10.8886 9.16424C10.9141 9.16014 10.9317 9.17039 10.9571 9.16629C10.9825 9.16219 11.0022 9.13186 11.0276 9.12776C11.053 9.12366 11.0862 9.15932 11.1116 9.15604C11.137 9.15276 11.1588 9.12161 11.1842 9.11915C11.21 9.11669 11.2391 9.16096 11.2649 9.15973C11.2908 9.1585 11.3149 9.12653 11.3408 9.12735C11.3658 9.12817 11.3895 9.14497 11.4145 9.14702C11.4396 9.14907 11.4654 9.14251 11.49 9.14538C11.5146 9.14866 11.5347 9.17408 11.5597 9.17777C11.5842 9.18186 11.6207 9.13268 11.6453 9.13678C11.6699 9.14087 11.6941 9.088 11.7187 9.0921C11.7433 9.0962 11.7675 9.09988 11.7921 9.10357C11.8171 9.10726 11.831 9.08513 11.856 9.088C11.881 9.09087 11.9105 9.0675 11.9355 9.06914C11.9605 9.07078 11.986 9.09824 12.011 9.09824C12.036 9.09824 12.063 9.08144 12.088 9.0798C12.113 9.07816 12.1356 9.05643 12.1598 9.05438C12.1848 9.05234 12.2094 9.08718 12.2335 9.08472C12.2581 9.08226 12.2799 9.11054 12.304 9.10808C12.3286 9.10562 12.3536 9.11095 12.3778 9.10849C12.402 9.10603 12.4282 9.11587 12.4524 9.11341C12.4766 9.11095 12.4979 9.08144 12.5225 9.07939C12.5471 9.07734 12.5717 9.06914 12.5963 9.0675C12.6205 9.06586 12.6488 9.1048 12.6738 9.10316C12.698 9.10193 12.7217 9.08185 12.7467 9.08144C12.773 9.08062 12.7996 9.0966 12.8263 9.09619C12.8525 9.09619 12.8791 9.06545 12.9054 9.06586C12.9316 9.06627 12.9587 9.12407 12.9849 9.12489C13.0111 9.12571 13.0365 9.14784 13.0632 9.14866C13.0894 9.14948 13.1136 9.16219 13.1398 9.16342C13.1661 9.16465 13.1948 9.15358 13.221 9.15481C13.2472 9.15604 13.2747 9.12981 13.3009 9.13063C13.3272 9.13145 13.3526 9.14661 13.3788 9.14743C13.405 9.14825 13.4313 9.13391 13.4575 9.13391C13.4846 9.13391 13.5104 9.15809 13.5374 9.15604C13.5645 9.1544 13.5924 9.16055 13.6194 9.15768C13.6465 9.15481 13.6772 9.17858 13.7039 9.17572C13.7309 9.17285 13.7563 9.16711 13.7838 9.16506C13.8108 9.16342 13.8363 9.16096 13.8633 9.16137C13.8875 9.16137 13.9117 9.15071 13.9363 9.15235C13.9605 9.15399 13.9855 9.1462 14.0101 9.14866C14.0342 9.15112 14.0637 9.12202 14.0879 9.12489C14.0916 9.1253 14.0949 9.12653 14.0986 9.12694C14.1092 9.13063 14.1925 9.1544 14.2048 9.15727C14.2171 9.16014 14.2265 9.1667 14.2388 9.16916C14.2515 9.17162 14.2646 9.16752 14.2769 9.16916C14.2896 9.17121 14.3499 9.1749 14.3622 9.1749V8.62891C14.349 8.62891 14.3232 8.63301 14.3105 8.63342C14.2974 8.63383 14.2847 8.64612 14.272 8.64694C14.2593 8.64776 14.2093 8.66006 14.1966 8.66129C14.1838 8.66293 14.1695 8.63014 14.1568 8.63178C14.1441 8.63342 14.133 8.66334 14.1203 8.66498C14.1129 8.66621 14.1056 8.67113 14.0982 8.67604C14.0883 8.67932 14.0785 8.68219 14.0683 8.68301C14.0437 8.68506 14.0182 8.71458 13.9937 8.71663C13.9691 8.71868 13.9416 8.69777 13.9166 8.69982C13.892 8.70187 13.8678 8.71171 13.8428 8.71376C13.8182 8.71581 13.7949 8.73425 13.7703 8.7363C13.7457 8.73835 13.7219 8.7527 13.6969 8.75434C13.6707 8.75639 13.6415 8.69613 13.6153 8.69695C13.5891 8.69777 13.5628 8.6658 13.5366 8.6658C13.5104 8.6658 13.4837 8.70392 13.4575 8.7031C13.4313 8.70228 13.4067 8.67113 13.3804 8.6699C13.3542 8.66867 13.3276 8.6785 13.3013 8.67727C13.2751 8.67604 13.2493 8.66949 13.223 8.66826C13.1968 8.66703 13.1702 8.6658 13.1439 8.66498C13.1177 8.66416 13.0906 8.69531 13.0644 8.6949C13.0382 8.6949 13.0123 8.69121 12.9861 8.69203C12.9599 8.69285 12.9345 8.69449 12.9082 8.69654C12.882 8.69859 12.8545 8.68629 12.8283 8.68957C12.8025 8.69285 12.7734 8.67154 12.748 8.674C12.7217 8.67646 12.7021 8.73548 12.6766 8.73712C12.6508 8.73876 12.6221 8.71376 12.5963 8.71499C12.5705 8.71622 12.5434 8.69695 12.5172 8.69777C12.4914 8.699 12.4668 8.72359 12.4405 8.72482C12.4147 8.72605 12.3741 8.66785 12.3479 8.66908C12.3221 8.67031 12.2975 8.6949 12.2712 8.69654C12.2454 8.69818 12.2171 8.68383 12.1909 8.68629C12.1651 8.68875 12.1401 8.70105 12.1138 8.70351C12.0876 8.70597 12.061 8.69736 12.0347 8.69941C12.0085 8.70146 11.9823 8.69039 11.9564 8.69162C11.9302 8.69285 11.906 8.70966 11.8798 8.71007C11.8536 8.71007 11.8281 8.71663 11.8019 8.7154C11.7757 8.71417 11.7478 8.72974 11.7216 8.72605C11.697 8.72277 11.6724 8.7195 11.6474 8.71663C11.6224 8.71376 11.5961 8.72523 11.5711 8.72318C11.5461 8.72073 11.5269 8.67113 11.5019 8.66908C11.4769 8.66703 11.4478 8.70597 11.4232 8.70433C11.3982 8.70269 11.374 8.69326 11.349 8.69162C11.324 8.69039 11.2994 8.68547 11.2744 8.68424C11.2494 8.68301 11.2264 8.6494 11.2014 8.64817C11.1764 8.64694 11.1481 8.70638 11.1231 8.70556C11.0981 8.70474 11.0747 8.6658 11.0497 8.66498C11.0247 8.66416 10.9997 8.66006 10.9747 8.65924C10.9489 8.65842 10.9235 8.63587 10.8973 8.63546C10.871 8.63465 10.844 8.69449 10.8181 8.69449C10.7919 8.69449 10.7665 8.67441 10.7403 8.67523C10.714 8.67646 10.6878 8.67113 10.662 8.67359C10.6361 8.67604 10.6046 8.65432 10.5792 8.65883C10.555 8.66293 10.5365 8.69121 10.5128 8.6949C10.4886 8.69859 10.4603 8.67441 10.4361 8.67727C10.4119 8.68014 10.3959 8.7404 10.3718 8.74245C10.3476 8.7445 10.3177 8.69121 10.2931 8.69285C10.2689 8.69449 10.225 8.69285 10.2004 8.69326C10.1762 8.69408 10.1516 8.68506 10.127 8.68547C10.1029 8.68547 10.0787 8.70064 10.0541 8.70023C10.0266 8.70023 10.0008 8.67031 9.97456 8.66949C9.94751 8.66867 9.92168 8.66457 9.89504 8.66334C9.86799 8.66211 9.83766 8.78016 9.81101 8.77811C9.78437 8.77606 9.75977 8.75434 9.73272 8.75106C9.70608 8.74819 9.68927 8.78672 9.66222 8.78303C9.63598 8.77934 9.60811 8.77852 9.58147 8.77401C9.55728 8.7695 9.54171 8.71745 9.5167 8.71417C9.49211 8.7113 9.46464 8.71499 9.43964 8.71335C9.41505 8.71171 9.38758 8.73794 9.36217 8.73712C9.33757 8.7363 9.31257 8.76458 9.28716 8.76458C9.26215 8.76458 9.23715 8.73343 9.21214 8.73425C9.18714 8.73466 9.1605 8.70761 9.13549 8.70843C9.11049 8.70966 9.08876 8.7568 9.06376 8.75803C9.03876 8.75966 9.01211 8.73876 8.98711 8.74081C8.9621 8.74245 8.93423 8.71745 8.90964 8.7195C8.88463 8.72154 8.86332 8.75393 8.83831 8.75598C8.81331 8.75803 8.7879 8.75434 8.7633 8.75639C8.7383 8.75844 8.7342 8.77565 8.7096 8.7777C8.6846 8.77975 8.66165 8.7941 8.63705 8.79615C8.61205 8.7982 8.61943 8.77811 8.59483 8.77975C8.56942 8.78139 8.54359 8.77852 8.51941 8.77975C8.49195 8.78098 8.46694 8.71007 8.44399 8.71089C8.41693 8.71171 8.39111 8.68793 8.36775 8.68834C8.34151 8.68834 8.31774 8.66949 8.29355 8.66826C8.26937 8.66703 8.24068 8.70269 8.21444 8.69982C8.19149 8.69736 8.17468 8.6453 8.14763 8.6412C8.12508 8.63792 8.06442 8.7281 8.03736 8.72359C8.01646 8.71785 7.99351 8.68793 7.96563 8.68629C7.94063 8.68506 7.91234 8.71171 7.88734 8.71048C7.85947 8.70925 7.82545 8.72318 7.80454 8.71786C7.77831 8.7113 7.75822 8.69367 7.73158 8.68998C7.70493 8.68629 7.68116 8.66416 7.65411 8.66211C7.62746 8.66006 7.59959 8.66539 7.57295 8.66334C7.5463 8.66129 7.50121 8.64366 7.47416 8.63997C7.44956 8.6367 7.37291 8.62891 7.34668 8.62891V9.17449C7.37496 9.17285 7.40652 9.16916 7.42948 9.16711L7.43153 9.16834Z" fill="#24635B"></path>
<path d="M7.34855 9.17671C7.31002 9.17589 7.28296 9.17548 7.24689 9.1722C7.20877 9.16851 7.18745 9.13982 7.15343 9.13326C7.11654 9.12589 7.03866 9.16606 7.00751 9.15581C6.9739 9.14433 6.98824 9.0976 6.96324 9.08326C6.93659 9.06768 6.85953 9.06768 6.84478 9.04882C6.82961 9.02915 6.87757 8.99718 6.87183 8.97627C6.86568 8.95537 6.88044 8.93651 6.8829 8.9152C6.88536 8.89388 6.87019 8.87339 6.88085 8.85289C6.89151 8.8324 6.90708 8.81436 6.92553 8.7955C6.94397 8.77665 6.96529 8.76107 6.9907 8.74509C7.01612 8.7291 7.01243 8.69262 7.0444 8.68032C7.07555 8.66843 7.13048 8.67499 7.16737 8.6672C7.18868 8.66311 7.22107 8.6422 7.26001 8.64056C7.2805 8.63974 7.31657 8.62867 7.34814 8.63195V9.17712L7.34855 9.17671Z" fill="#24635B"></path>
<path d="M5.99468 11.4943L5.82129 11.9661L5.88564 11.9858C5.90245 11.9903 5.92458 11.9891 5.93934 11.9907C5.95984 11.9928 5.97377 12.0071 5.9914 12.0067C6.0123 12.0067 6.03444 12.0026 6.05247 11.9989C6.07338 11.9948 6.08158 11.9948 6.09838 11.9862C6.11765 11.9768 6.15905 11.9551 6.17381 11.9403C6.18856 11.9251 6.182 11.8866 6.19307 11.8665C6.20332 11.8481 6.21193 11.83 6.2193 11.8071C6.22627 11.7858 6.22832 11.7661 6.22791 11.7427C6.22791 11.7214 6.23283 11.7046 6.2275 11.6829C6.22258 11.6628 6.23201 11.6587 6.22381 11.639C6.21602 11.6202 6.20988 11.614 6.19963 11.5964C6.18979 11.5792 6.18938 11.5661 6.17749 11.5505C6.16602 11.5345 6.12954 11.5284 6.11683 11.514C6.10371 11.4993 6.07256 11.4988 6.05862 11.487C6.04387 11.4738 6.02583 11.4648 6.0082 11.457C6.00493 11.4665 5.99468 11.4947 5.99468 11.4947V11.4943Z" fill="#24635B"></path>
<path d="M3.22307 7.59629C3.22102 7.62006 3.21528 7.64547 3.21487 7.66392C3.21446 7.68851 3.19807 7.70163 3.1993 7.71967C3.20094 7.74385 3.22594 7.75984 3.22922 7.77869C3.23332 7.79837 3.23742 7.81927 3.24193 7.84223C3.24398 7.85534 3.19069 7.87707 3.18249 7.90494C3.17634 7.92462 3.20708 7.95823 3.1993 7.97954C3.19151 8.00086 3.19684 8.01684 3.19028 8.03611C3.18085 8.06357 3.17265 8.08899 3.1747 8.10251C3.17142 8.12916 3.1911 8.15129 3.19233 8.16933C3.19438 8.19474 3.15052 8.21155 3.15544 8.23163C3.16036 8.25131 3.13494 8.27262 3.13576 8.29845C3.13617 8.31689 3.17921 8.34067 3.17675 8.36608C3.17347 8.38125 3.15175 8.39395 3.14888 8.40912C3.14601 8.4247 3.17101 8.44273 3.16937 8.45831C3.1665 8.48618 3.16609 8.51201 3.16732 8.53947C3.16568 8.55956 3.16036 8.58087 3.15872 8.60096C3.15749 8.62104 3.16732 8.64072 3.1665 8.6608C3.16568 8.68089 3.1497 8.70015 3.14929 8.72024C3.14929 8.74032 3.1747 8.75877 3.17552 8.77885C3.17552 8.79853 3.18659 8.81861 3.18905 8.83911C3.19151 8.8596 3.16773 8.8801 3.17101 8.901C3.17429 8.92068 3.16118 8.94322 3.16404 8.96331C3.1665 8.98339 3.18331 9.00143 3.187 9.02111C3.19028 9.04078 3.1665 9.06496 3.16978 9.08505C3.17265 9.10513 3.1952 9.12235 3.19766 9.14244C3.20053 9.16252 3.18864 9.18466 3.19233 9.20474C3.19561 9.22483 3.22594 9.24081 3.22881 9.2609C3.23209 9.28098 3.24029 9.30066 3.24316 9.32033C3.24603 9.34042 3.25545 9.35927 3.25996 9.37895C3.26365 9.39862 3.25873 9.42035 3.26242 9.44002C3.26611 9.4597 3.25176 9.48347 3.25545 9.50315C3.25914 9.52323 3.2989 9.53553 3.30382 9.5548C3.30874 9.5757 3.32432 9.59005 3.32924 9.61054C3.33415 9.63145 3.38457 9.64088 3.38949 9.66096C3.394 9.68146 3.39482 9.70236 3.40056 9.72245C3.40671 9.74212 3.41654 9.76098 3.42269 9.78065C3.42884 9.80033 3.40589 9.83189 3.41286 9.85157C3.42023 9.87124 3.39687 9.90403 3.40466 9.92371C3.41245 9.94338 3.41163 9.96511 3.41941 9.98519C3.42679 10.0049 3.43007 10.027 3.4395 10.0467C3.44852 10.0659 3.48705 10.0717 3.49648 10.0909C3.50549 10.1102 3.49074 10.1438 3.50139 10.1627C3.51287 10.1807 3.53706 10.1881 3.54935 10.2053C3.56206 10.2225 3.58747 10.2291 3.60059 10.2455C3.6133 10.2619 3.58788 10.3111 3.60305 10.3266C3.61781 10.3422 3.61699 10.3603 3.63174 10.3758C3.6465 10.3914 3.68093 10.3889 3.69528 10.4041C3.70962 10.4193 3.69651 10.4611 3.71126 10.4767C3.72643 10.4922 3.76168 10.4886 3.77562 10.5041C3.78956 10.5197 3.76824 10.5656 3.78259 10.5816C3.79652 10.5976 3.83424 10.5939 3.84694 10.6107C3.85924 10.6271 3.85801 10.6529 3.86908 10.6706C3.88096 10.6874 3.89982 10.6992 3.91089 10.7165C3.92195 10.7337 3.91376 10.7632 3.924 10.7812C3.93425 10.7997 3.99082 10.7886 4.00188 10.8058C4.01295 10.8234 4.0646 10.8009 4.07526 10.8181C4.08592 10.8353 4.09698 10.8521 4.10846 10.8689C4.12035 10.8853 4.14412 10.8776 4.15642 10.8935C4.16872 10.9095 4.20192 10.9087 4.21503 10.9239C4.22815 10.939 4.22487 10.9726 4.24004 10.9858C4.2552 10.9993 4.28226 11.0005 4.29865 11.0128C4.31505 11.0247 4.3421 11.0202 4.3585 11.0309C4.3749 11.0415 4.36793 11.0809 4.38473 11.0911C4.40154 11.1014 4.39744 11.1346 4.41425 11.1448C4.43105 11.1555 4.44417 11.1714 4.46098 11.1813C4.47819 11.1907 4.48885 11.2112 4.50606 11.221C4.52328 11.2305 4.55402 11.2174 4.57124 11.2264C4.58846 11.2354 4.60895 11.2399 4.62617 11.2497C4.64297 11.2592 4.63928 11.3038 4.6565 11.3141C4.67289 11.3243 4.69995 11.317 4.71716 11.3272C4.73479 11.3379 4.74463 11.3625 4.76225 11.3735C4.77988 11.3846 4.81349 11.3703 4.83153 11.3809C4.84915 11.3916 4.83768 11.4522 4.8553 11.4637C4.87293 11.4748 4.87908 11.5047 4.89711 11.5158C4.91474 11.5268 4.92539 11.5469 4.94343 11.5584C4.96147 11.5695 4.98647 11.5711 5.0041 11.5822C5.02213 11.5932 5.05369 11.5797 5.07173 11.59C5.08977 11.6002 5.10042 11.6232 5.11887 11.6334C5.13731 11.6441 5.16232 11.64 5.18076 11.649C5.20003 11.6584 5.20782 11.6892 5.2279 11.6969C5.24799 11.7047 5.2652 11.7203 5.2857 11.7265C5.30619 11.733 5.31849 11.7642 5.33899 11.7707C5.35989 11.7769 5.38039 11.7802 5.40088 11.7871C5.42138 11.7941 5.44064 11.7998 5.46032 11.8084C5.47753 11.8162 5.49926 11.8138 5.51647 11.8228C5.53328 11.8314 5.55459 11.8318 5.5714 11.8412C5.58821 11.8507 5.62018 11.8322 5.63699 11.8425C5.63944 11.8441 5.64149 11.8457 5.64395 11.8474C5.6501 11.8539 5.70216 11.8994 5.71036 11.906C5.71856 11.9126 5.72266 11.9208 5.73085 11.9265C5.73905 11.9326 5.75012 11.9322 5.75873 11.9376C5.76733 11.9429 5.81037 11.963 5.81939 11.9658L6.00795 11.4535C5.99893 11.4502 5.97966 11.4473 5.97106 11.4449C5.96204 11.442 5.94892 11.4502 5.9399 11.4477C5.93088 11.4453 5.89235 11.4432 5.88293 11.4412C5.8735 11.4391 5.87555 11.4051 5.86653 11.4035C5.8571 11.4018 5.83866 11.4264 5.82923 11.4248C5.82349 11.4239 5.81693 11.4268 5.81037 11.4289C5.80259 11.4289 5.7948 11.4289 5.78742 11.4272C5.76979 11.4223 5.74192 11.4424 5.72388 11.4375C5.70626 11.4326 5.69519 11.4059 5.67798 11.4006C5.66035 11.3953 5.64026 11.3973 5.62264 11.392C5.60501 11.3866 5.58206 11.3969 5.56443 11.392C5.54681 11.3866 5.52508 11.392 5.50746 11.3862C5.48901 11.3801 5.49475 11.3161 5.47671 11.3092C5.45868 11.3022 5.4554 11.2649 5.43859 11.2563C5.42179 11.2481 5.38735 11.2739 5.37055 11.2645C5.35374 11.2555 5.35128 11.2198 5.3353 11.21C5.3189 11.2001 5.29718 11.2001 5.28119 11.1903C5.26479 11.1805 5.25127 11.1661 5.23528 11.1559C5.2193 11.1456 5.20331 11.1354 5.18732 11.1255C5.17134 11.1157 5.13895 11.1333 5.12215 11.1239C5.10534 11.1145 5.09182 11.1018 5.07501 11.0927C5.0582 11.0837 5.04181 11.0759 5.02418 11.0682C5.00697 11.0604 4.99631 11.0395 4.97868 11.0321C4.96106 11.0247 4.95532 10.9956 4.93851 10.9878C4.92171 10.9796 4.87703 11.0218 4.86063 11.0124C4.84423 11.003 4.84137 10.9706 4.82538 10.9612C4.80898 10.9517 4.80447 10.9247 4.78849 10.9149C4.77291 10.905 4.74422 10.9144 4.72823 10.9038C4.71266 10.8935 4.72413 10.8296 4.70856 10.8198C4.69298 10.8103 4.6647 10.8181 4.64912 10.8079C4.63354 10.7976 4.62699 10.7738 4.61141 10.764C4.59542 10.7542 4.5737 10.7529 4.55853 10.7419C4.54296 10.7312 4.53394 10.7124 4.51877 10.7017C4.50361 10.691 4.49664 10.6706 4.48229 10.6591C4.46794 10.6472 4.44417 10.6476 4.43064 10.6349C4.41712 10.6222 4.39949 10.6144 4.38719 10.6005C4.37449 10.5869 4.3503 10.5828 4.33964 10.5673L4.31013 10.5226C4.29988 10.5078 4.27816 10.5025 4.26873 10.4873C4.25889 10.4722 4.28718 10.4291 4.27734 10.4148C4.2675 10.4004 4.22446 10.4103 4.21421 10.3959C4.20397 10.3816 4.20151 10.3619 4.19167 10.3471C4.18183 10.3324 4.17527 10.316 4.16544 10.3016C4.1556 10.2873 4.1724 10.2545 4.1638 10.2397C4.15478 10.2254 4.09534 10.2438 4.08592 10.2291C4.07649 10.2139 4.09903 10.1791 4.0896 10.1643C4.08059 10.1496 4.07526 10.1323 4.06665 10.1176C4.05763 10.102 4.06747 10.0754 4.05845 10.0598C4.04943 10.0446 3.98795 10.0598 3.97934 10.0434C3.97032 10.0274 3.97934 10.002 3.9695 9.98642C3.95967 9.97126 3.95516 9.95281 3.9445 9.93846C3.93384 9.92371 3.9445 9.8942 3.9322 9.88026C3.92113 9.86714 3.88998 9.86796 3.87973 9.85444C3.86908 9.8405 3.88178 9.81304 3.87318 9.79869C3.86416 9.78434 3.80431 9.79787 3.7957 9.78311C3.78669 9.76795 3.82768 9.72777 3.81989 9.71302C3.81128 9.69826 3.80308 9.66834 3.79611 9.65276C3.78956 9.63719 3.79243 9.61792 3.78628 9.60194C3.78013 9.58595 3.76045 9.57488 3.75471 9.55849C3.74939 9.54004 3.77275 9.5134 3.76824 9.49577C3.76373 9.47733 3.7625 9.45888 3.7584 9.44084C3.7543 9.42281 3.6342 9.43306 3.63174 9.41297C3.62928 9.3933 3.64609 9.37075 3.64486 9.35149C3.64322 9.33222 3.60264 9.32894 3.60182 9.30886C3.60059 9.28959 3.59772 9.2695 3.59895 9.24942C3.60018 9.23138 3.64937 9.21048 3.64937 9.19244C3.64937 9.17482 3.64199 9.15637 3.64035 9.13834C3.63871 9.12112 3.61002 9.10513 3.60879 9.0871C3.60715 9.06947 3.57723 9.05513 3.57477 9.03709C3.57231 9.01905 3.601 8.99733 3.59813 8.9797C3.59485 8.96208 3.62068 8.93994 3.61822 8.92232C3.61576 8.90469 3.56739 8.89322 3.56452 8.87518C3.56165 8.85714 3.58051 8.83624 3.57723 8.81861C3.57395 8.80058 3.59731 8.77926 3.59526 8.76082C3.5928 8.74237 3.56001 8.72803 3.55714 8.70999C3.55427 8.69154 3.55755 8.67269 3.55509 8.65424C3.55222 8.6358 3.53542 8.63334 3.53255 8.61489C3.52968 8.59645 3.51533 8.57964 3.51287 8.5612C3.51041 8.54234 3.5305 8.54767 3.52886 8.52963C3.52681 8.51078 3.52968 8.49151 3.52804 8.47348C3.5264 8.45298 3.5969 8.43413 3.59567 8.41732C3.59444 8.39723 3.61781 8.37838 3.61699 8.36157C3.61576 8.3419 3.63707 8.32632 3.63871 8.3087C3.64076 8.29148 3.60633 8.27016 3.60961 8.25131C3.61289 8.23491 3.66536 8.22549 3.67027 8.20663C3.67437 8.19105 3.58624 8.14227 3.59157 8.1226C3.59731 8.10784 3.6301 8.09432 3.63379 8.07464C3.63707 8.05702 3.61289 8.03447 3.61617 8.01684C3.61986 7.99717 3.60879 7.97135 3.61576 7.957C3.62437 7.93937 3.64363 7.92708 3.64937 7.90904C3.6547 7.8906 3.6797 7.87748 3.68585 7.85944C3.69159 7.84141 3.68995 7.82132 3.69569 7.80329C3.70143 7.78525 3.72479 7.75779 3.73176 7.74016C3.73791 7.72417 3.75512 7.67335 3.76168 7.65654L3.23127 7.52783C3.22635 7.55079 3.22389 7.57661 3.22266 7.59588L3.22307 7.59629Z" fill="#24635B"></path>
<path d="M7.58568 4.64984C7.56314 4.65434 7.53854 4.65475 7.52133 4.65926C7.49837 4.665 7.48198 4.6527 7.46558 4.65885C7.44385 4.66746 7.43525 4.69574 7.41844 4.70394C7.40081 4.71255 7.38319 4.72444 7.36228 4.73264C7.3504 4.73755 7.31719 4.69042 7.28932 4.68796C7.26965 4.68591 7.24505 4.72403 7.22333 4.72157C7.2016 4.71911 7.18767 4.72772 7.16799 4.72608C7.14053 4.72403 7.11429 4.72075 7.102 4.72444C7.07617 4.72567 7.05896 4.74903 7.04174 4.75395C7.01797 4.76092 6.99337 4.72157 6.97534 4.72977C6.9573 4.73837 6.93271 4.71788 6.90811 4.72321C6.89049 4.72731 6.87614 4.77445 6.85032 4.77568C6.83474 4.77486 6.81834 4.75559 6.80277 4.75518C6.78719 4.75518 6.77366 4.78223 6.75809 4.78305C6.73021 4.78469 6.7048 4.78879 6.67775 4.79412C6.65766 4.79535 6.63594 4.79412 6.61626 4.79699C6.59618 4.79945 6.57855 4.81257 6.55847 4.81585C6.53838 4.81872 6.51666 4.80642 6.49657 4.8097C6.47648 4.81339 6.46296 4.84167 6.44369 4.84618C6.42402 4.8511 6.4068 4.86503 6.38754 4.87077C6.36827 4.87651 6.3445 4.85643 6.32523 4.86298C6.30678 4.86913 6.28301 4.86012 6.26457 4.86585C6.24612 4.87159 6.23136 4.89127 6.21251 4.89742C6.19406 4.90356 6.16742 4.88348 6.14856 4.88922C6.12971 4.89496 6.11659 4.91955 6.09774 4.92488C6.07888 4.93021 6.05592 4.92201 6.03707 4.92734C6.01821 4.93226 6.00674 4.96464 5.98788 4.96997C5.96903 4.9753 5.95099 4.98595 5.93254 4.99128C5.91369 4.99661 5.89688 5.0085 5.87803 5.01383C5.85917 5.01916 5.83786 5.01547 5.819 5.0208C5.80015 5.02654 5.77637 5.01424 5.75752 5.01998C5.73866 5.02572 5.73087 5.0663 5.71243 5.07203C5.69275 5.07777 5.67963 5.09417 5.66037 5.09991C5.64069 5.10565 5.63496 5.15647 5.6161 5.16344C5.59683 5.17 5.57593 5.17082 5.55707 5.17738C5.53822 5.18394 5.52059 5.1946 5.50174 5.20156C5.48288 5.20853 5.45132 5.18681 5.43205 5.19378C5.4132 5.20115 5.38041 5.17861 5.36155 5.1864C5.34269 5.19418 5.32179 5.19378 5.30252 5.20197C5.28367 5.21017 5.26276 5.21304 5.2435 5.22124C5.22464 5.22944 5.21931 5.26674 5.20087 5.27658C5.18242 5.28559 5.14963 5.27084 5.132 5.28108C5.11438 5.29174 5.107 5.3147 5.08979 5.32658C5.07298 5.33806 5.06601 5.36306 5.04961 5.37536C5.03322 5.38725 4.98649 5.36102 4.9705 5.37413C4.95493 5.38766 4.9373 5.38602 4.92173 5.39955C4.90615 5.41348 4.90738 5.4475 4.8918 5.46103C4.87623 5.47456 4.83483 5.45652 4.81925 5.47087C4.80367 5.48481 4.80531 5.52047 4.78933 5.53358C4.77334 5.5467 4.72989 5.52211 4.71309 5.5344C4.69628 5.5467 4.69751 5.58359 4.67947 5.59425C4.66185 5.60409 4.63725 5.60163 4.61963 5.61147C4.602 5.6213 4.58889 5.63893 4.57085 5.64795C4.55281 5.65696 4.52453 5.6459 4.50608 5.65451C4.48723 5.66311 4.49256 5.71927 4.47452 5.72788C4.45649 5.7369 4.4737 5.791 4.45567 5.80002C4.43804 5.80945 4.42041 5.81847 4.40279 5.82789C4.38475 5.83732 4.39008 5.86192 4.37287 5.87216C4.35524 5.88241 4.35237 5.91479 4.33679 5.92709C4.32081 5.93898 4.28802 5.93242 4.27285 5.94554C4.25768 5.95906 4.25318 5.98571 4.23965 6.00046C4.22612 6.01522 4.22776 6.04309 4.21505 6.05744C4.20194 6.07178 4.16423 6.06195 4.15234 6.07711C4.14045 6.09269 4.10807 6.08572 4.09618 6.1013C4.0843 6.11728 4.06626 6.12794 4.05437 6.14393C4.04289 6.15991 4.02035 6.1677 4.00887 6.1841C3.99781 6.2009 4.00887 6.23329 3.99781 6.24968C3.98674 6.26608 3.98018 6.28616 3.9687 6.30256C3.95764 6.31855 3.91296 6.31076 3.90107 6.32715C3.88918 6.34273 3.89246 6.36978 3.88139 6.38659C3.86951 6.40381 3.84409 6.412 3.83139 6.42922C3.81868 6.44644 3.83057 6.48169 3.81786 6.49849C3.80515 6.51489 3.7449 6.49931 3.73137 6.51653C3.71907 6.53415 3.68956 6.53948 3.67726 6.55752C3.66497 6.57515 3.64365 6.58539 3.63094 6.60302C3.61824 6.62105 3.61496 6.64647 3.60266 6.66409C3.58954 6.68172 3.60102 6.71451 3.59077 6.73296C3.57971 6.7514 3.55675 6.76247 3.54609 6.78092C3.53544 6.79977 3.5379 6.82518 3.52765 6.84404C3.51699 6.86372 3.48584 6.8715 3.47682 6.89241C3.46944 6.91372 3.45428 6.93176 3.44772 6.95348C3.44116 6.9748 3.4096 6.98874 3.40304 7.01046C3.39648 7.03219 3.39361 7.05391 3.38623 7.07522C3.37844 7.09654 3.37311 7.11662 3.36574 7.13794C3.35877 7.1568 3.36246 7.17893 3.35426 7.19779C3.34606 7.21582 3.34647 7.23796 3.33745 7.2564C3.32844 7.27444 3.34811 7.306 3.33868 7.32404C3.33745 7.3265 3.3354 7.32895 3.33376 7.33141C3.3268 7.33797 3.28704 7.39741 3.2813 7.40643C3.27556 7.41544 3.26777 7.42118 3.26244 7.4302C3.25711 7.43963 3.25875 7.45111 3.25424 7.46053C3.24973 7.46996 3.23293 7.5171 3.23047 7.52735L3.76088 7.65606C3.76293 7.64745 3.76416 7.62941 3.7658 7.6208C3.76744 7.6122 3.75842 7.60031 3.75965 7.5917C3.76129 7.58309 3.75842 7.5462 3.75965 7.53718C3.76047 7.52817 3.79449 7.52776 3.7949 7.51874C3.79572 7.50972 3.76908 7.49374 3.76949 7.48472C3.76949 7.47939 3.76621 7.47283 3.76375 7.46668C3.76293 7.4593 3.76252 7.45193 3.76375 7.44496C3.76744 7.42815 3.74572 7.40192 3.7494 7.3847C3.75309 7.36749 3.77933 7.35601 3.78302 7.33879C3.78671 7.32158 3.78302 7.30231 3.78712 7.28468C3.7904 7.26706 3.78056 7.24574 3.78589 7.22853C3.79121 7.21172 3.78507 7.19041 3.7904 7.17319C3.79613 7.15516 3.85967 7.16048 3.86623 7.14327C3.87279 7.12605 3.90886 7.12277 3.91665 7.10638C3.92525 7.09039 3.89984 7.05678 3.90927 7.04079C3.91869 7.02481 3.95436 7.02399 3.96419 7.00882C3.97362 6.99324 3.97362 6.97193 3.98346 6.95635C3.99289 6.94078 4.00723 6.92807 4.01871 6.91372C4.02937 6.89897 4.04003 6.8838 4.05068 6.86904C4.06093 6.85429 4.04494 6.8215 4.05519 6.80592C4.06503 6.79034 4.07774 6.77682 4.08675 6.76083C4.097 6.74566 4.10602 6.73009 4.11545 6.7141C4.12488 6.69812 4.14619 6.68951 4.15439 6.67311C4.16259 6.65631 4.19169 6.65303 4.2003 6.63704C4.2085 6.62064 4.1716 6.5735 4.18226 6.55834C4.19292 6.54317 4.2253 6.54358 4.23637 6.52883C4.24744 6.51407 4.27449 6.51202 4.28556 6.49726C4.29662 6.48292 4.28925 6.45258 4.30072 6.43783C4.31302 6.42389 4.37574 6.44275 4.38721 6.42881C4.39869 6.41487 4.39336 6.38536 4.40484 6.37101C4.41632 6.35667 4.4405 6.35257 4.45157 6.33781C4.46263 6.32265 4.46796 6.30256 4.47985 6.28821C4.49215 6.27387 4.51182 6.26731 4.52412 6.25337C4.53642 6.23944 4.55773 6.23493 4.57044 6.22181C4.58356 6.20828 4.58479 6.18369 4.59954 6.17221C4.61389 6.16032 4.62414 6.14393 4.63971 6.13327C4.65529 6.12261 4.66103 6.09761 4.67783 6.08859L4.72497 6.06277C4.74055 6.05375 4.74957 6.03407 4.76555 6.02547C4.78154 6.01686 4.82212 6.04924 4.8377 6.04063C4.85327 6.03202 4.84753 5.98817 4.86311 5.97915C4.87869 5.97013 4.89754 5.96726 4.91353 5.95906C4.92951 5.95045 4.94714 5.94513 4.96272 5.93652C4.9787 5.92791 5.01067 5.94758 5.02625 5.93857C5.04183 5.92996 5.02707 5.86847 5.04306 5.85987C5.05863 5.85044 5.09306 5.87544 5.10905 5.86765C5.12504 5.85946 5.14266 5.85454 5.15865 5.84634C5.17505 5.83773 5.2021 5.84839 5.21849 5.83978C5.23489 5.83117 5.223 5.76928 5.2394 5.75985C5.25621 5.75124 5.28203 5.76067 5.29843 5.75124C5.31482 5.74181 5.33368 5.73771 5.34925 5.72706C5.36483 5.7164 5.39434 5.72542 5.4091 5.71312C5.42263 5.70123 5.42222 5.67008 5.43656 5.65983C5.45091 5.64918 5.48001 5.6627 5.49436 5.65287C5.50912 5.64303 5.49436 5.58318 5.50993 5.57375C5.5251 5.56433 5.56691 5.60409 5.58208 5.59507C5.59724 5.58564 5.62799 5.57621 5.64397 5.56843C5.65996 5.56105 5.68004 5.56269 5.69644 5.55572C5.71243 5.54875 5.72349 5.52826 5.73989 5.5217C5.75875 5.51473 5.78621 5.53481 5.80507 5.52907C5.82392 5.52293 5.84278 5.52047 5.86163 5.51514C5.88049 5.50981 5.86122 5.39094 5.88049 5.38602C5.89975 5.3811 5.92394 5.39545 5.94361 5.39176C5.96288 5.38807 5.96288 5.3479 5.98296 5.34544C6.00264 5.34298 6.02272 5.33724 6.04281 5.33601C6.06125 5.33478 6.0879 5.3811 6.10634 5.37823C6.12438 5.37577 6.14241 5.36552 6.16045 5.36184C6.17849 5.35856 6.19037 5.32781 6.20841 5.32371C6.22603 5.31962 6.23628 5.28723 6.25391 5.28231C6.27153 5.2774 6.29777 5.30199 6.31539 5.29666C6.33302 5.29092 6.35884 5.31224 6.37647 5.30691C6.39368 5.30158 6.39778 5.25198 6.41541 5.24583C6.43304 5.24009 6.45722 5.25526 6.47443 5.2487C6.49206 5.24255 6.51788 5.26182 6.5351 5.25567C6.55232 5.24952 6.56092 5.21468 6.57814 5.20853C6.59577 5.20238 6.61503 5.20238 6.63225 5.19623C6.64987 5.19009 6.64946 5.17287 6.66668 5.16713C6.6843 5.16098 6.69824 5.14336 6.71587 5.13762C6.7339 5.13188 6.73226 5.15279 6.74989 5.14787C6.76793 5.14295 6.7876 5.14213 6.80523 5.13803C6.82531 5.13311 6.85646 5.19951 6.87286 5.19582C6.89254 5.19132 6.91508 5.21099 6.93189 5.20812C6.95074 5.20484 6.97124 5.22124 6.98886 5.2196C7.00649 5.21796 7.02165 5.17984 7.04133 5.17943C7.05855 5.17943 7.07822 5.22903 7.09831 5.22985C7.1147 5.22985 7.14627 5.13475 7.16717 5.1368C7.18357 5.14049 7.20406 5.16836 7.22456 5.16713C7.243 5.1659 7.26022 5.1368 7.27866 5.13557C7.29916 5.13434 7.32252 5.11712 7.33851 5.12122C7.35859 5.12573 7.3754 5.14213 7.39508 5.14377C7.41516 5.14541 7.43443 5.1659 7.4541 5.1659C7.47378 5.1659 7.49345 5.15852 7.51313 5.15893C7.5328 5.15975 7.56723 5.17492 7.58691 5.17697C7.60495 5.17902 7.6611 5.18271 7.68037 5.18148L7.64717 4.63672C7.62503 4.64 7.60044 4.64533 7.58281 4.64861L7.58568 4.64984Z" fill="#24635B"></path>
<path d="M7.64941 4.63688C7.67975 4.63525 7.70106 4.63525 7.72975 4.6377C7.76009 4.64016 7.77771 4.66763 7.80477 4.67337C7.83387 4.6791 7.89372 4.63688 7.91831 4.64713C7.94495 4.65779 7.93471 4.70493 7.95438 4.71927C7.97529 4.73444 8.03513 4.73321 8.04661 4.75207C8.0585 4.77174 8.02161 4.80412 8.02652 4.82503C8.03144 4.84593 8.02038 4.86479 8.01874 4.88611C8.0171 4.90742 8.02898 4.92792 8.02079 4.94841C8.013 4.96891 8.00152 4.98735 7.98799 5.00621C7.97447 5.02506 7.95889 5.04105 7.94044 5.05744C7.922 5.07384 7.92569 5.11032 7.90232 5.12303C7.87978 5.13492 7.83961 5.13082 7.81255 5.13942C7.79698 5.14434 7.77443 5.16607 7.74615 5.16894C7.73139 5.17058 7.70557 5.18205 7.68262 5.18082L7.64982 4.63648L7.64941 4.63688Z" fill="#24635B"></path>
<path d="M16.0015 11.7959L19.6943 6.49378C20.1866 5.78178 19.6767 4.75293 18.815 4.75293H8.00879C6.10971 4.76154 3.30475 5.7203 3.32237 8.58633C3.24326 10.6174 4.74679 11.3823 5.98674 11.7955C6.34704 11.9184 7.48165 12.2701 8.22891 12.7186C8.71259 13.0088 8.96755 13.4658 8.76506 13.9233C8.55396 14.4155 8.21989 14.5475 7.63086 14.5389C7.19103 14.5303 6.62865 14.3893 5.93386 14.1257C5.54691 13.9852 4.14915 13.1674 3.34902 14.4774C3.07643 14.9874 3.07643 16.0338 3.88517 16.4294C4.70293 16.9393 6.4528 17.2033 7.39352 17.1943C10.3567 17.3086 11.825 15.3477 11.825 13.1231C11.825 10.2128 8.76506 9.79062 7.19144 9.29833C7.19144 9.29833 6.01338 8.94664 6.29458 7.97927C6.48805 7.28448 7.35868 7.33736 7.49026 7.33736L15.9576 7.30211L12.3525 12.7095C11.8865 13.4129 12.3878 14.3627 13.2408 14.3627H20.4141C21.1269 14.3627 21.7044 13.7847 21.7044 13.0723C21.7044 12.3578 21.1244 11.7795 20.41 11.7819L16.0015 11.7955V11.7959Z" fill="#AFD8F2" stroke="#24635B" stroke-width="0.284179" stroke-linecap="round" stroke-linejoin="round"></path>
<path d="M1.22925 5.73433C1.16284 5.68801 1.10218 5.62243 1.05463 5.54946C1.01446 5.48757 0.998474 5.39616 1.00011 5.32361C1.00544 5.09324 1.23253 4.90715 1.48216 4.7977C1.5334 4.77516 1.58627 4.76286 1.63382 4.73048C1.67809 4.70589 1.77524 4.52594 1.79286 4.48167C1.91092 4.17875 2.28065 3.9156 2.5934 4.02545C2.68317 4.05701 2.76843 4.16277 2.78688 4.21974C2.82705 4.34189 2.8373 4.50299 2.84221 4.55955C2.84426 4.60095 2.86804 4.62637 2.91313 4.62432C3.23449 4.63251 3.54643 4.8969 3.52306 5.25434C3.51773 5.33796 3.50093 5.43264 3.43575 5.49618C3.37058 5.55561 3.28901 5.58964 3.21154 5.63472C3.18202 5.65112 3.16768 5.6708 3.17301 5.70072C3.2099 5.85402 3.2349 6.04709 3.18489 6.20039C3.10578 6.37747 2.99716 6.58119 2.77827 6.59062C2.64628 6.59635 2.48888 6.54307 2.42083 6.45535C2.39706 6.42625 2.37698 6.40452 2.3532 6.3828C2.34541 6.37542 2.3282 6.36148 2.30565 6.40001C2.20318 6.57545 2.06258 6.63407 1.86624 6.64636H1.86255C1.78713 6.64636 1.71785 6.63939 1.60349 6.5939C1.53135 6.5652 1.32353 6.47625 1.30016 6.14669C1.2936 6.05241 1.30713 5.96142 1.32927 5.8696C1.36124 5.74335 1.31041 5.78721 1.22884 5.73433H1.22925ZM1.33623 5.30803C1.33254 5.3814 1.39649 5.43756 1.44322 5.43961C1.47355 5.44084 1.51167 5.42322 1.54569 5.42485C1.63628 5.42854 1.73138 5.47445 1.74655 5.55315C1.7572 5.59947 1.73876 5.64456 1.72072 5.6876C1.71047 5.71138 1.7031 5.73638 1.69777 5.76179C1.67645 5.85812 1.64079 5.95732 1.6371 6.05651C1.63177 6.19957 1.71006 6.2713 1.77237 6.28975C1.91543 6.33156 2.07775 6.25983 2.05192 6.05528C2.04045 5.96552 2.04209 5.92248 2.05192 5.82902C2.06053 5.7495 2.07078 5.66178 2.13636 5.60603C2.16178 5.57857 2.19498 5.56586 2.23269 5.56381C2.28557 5.56135 2.32861 5.59414 2.36591 5.63677C2.40239 5.68104 2.40772 5.73351 2.40854 5.78803C2.40936 5.83517 2.42288 5.91059 2.44338 5.95281C2.55241 6.22416 2.63111 6.24343 2.74548 6.20941C2.85984 6.17539 2.90821 5.96961 2.79221 5.70441C2.7795 5.6708 2.75163 5.62899 2.72744 5.59988C2.67579 5.54168 2.67129 5.44371 2.72908 5.38837C2.76146 5.35681 2.79467 5.33263 2.83566 5.3232C2.87501 5.31131 2.91518 5.32607 2.95781 5.33058C2.96969 5.33181 2.98117 5.33181 2.99306 5.33058C3.032 5.32648 3.07914 5.31459 3.11808 5.30311C3.14759 5.29041 3.16932 5.26294 3.18284 5.22851C3.21973 5.12481 3.13243 5.03422 3.04758 4.99282C3.00495 4.97191 2.95125 4.95675 2.90247 4.96167C2.71105 4.9797 2.68112 5.09898 2.55774 5.06332C2.50568 5.04815 2.46674 5.00225 2.45732 4.94896C2.41797 4.73253 2.50077 4.69851 2.50732 4.57144C2.50937 4.53004 2.5065 4.48618 2.49626 4.44806C2.48068 4.38985 2.42698 4.34886 2.36714 4.35419C2.29418 4.36075 2.19088 4.40748 2.11177 4.59316C2.09988 4.61284 2.04659 4.71982 2.01749 4.7809C2.00888 4.79934 2.00191 4.81861 1.99618 4.83829C1.96666 4.94158 1.9187 5.05061 1.81992 5.08628C1.76786 5.10759 1.67727 5.1121 1.62726 5.1203C1.41125 5.15555 1.33869 5.26048 1.33623 5.30926V5.30803Z" fill="#AFD8F2"></path>
</svg><style>@media (prefers-color-scheme: light) { :root { filter: none; } }
@media (prefers-color-scheme: dark) { :root { filter: none; } }
</style></svg>